<?xml version="1.0" encoding="UTF-8"?>
<!DOCTYPE svg PUBLIC "-//W3C//DTD SVG 1.1//EN" "http://www.w3.org/Graphics/SVG/1.1/DTD/svg11.dtd">
<!-- Creator: CorelDRAW 2021 (64-Bit) -->
<svg xmlns="http://www.w3.org/2000/svg" xml:space="preserve" width="144px" height="144px" version="1.1" style="shape-rendering:geometricPrecision; text-rendering:geometricPrecision; image-rendering:optimizeQuality; fill-rule:evenodd; clip-rule:evenodd"
viewBox="0 0 40.81 40.81"
 xmlns:xlink="http://www.w3.org/1999/xlink"
 xmlns:xodm="http://www.corel.com/coreldraw/odm/2003">
 <defs>
  <style type="text/css">
   <![CDATA[
    .fil0 {fill:black;fill-rule:nonzero}
    .fil1 {fill:#FEFEFE;fill-rule:nonzero}
   ]]>
  </style>
 </defs>
 <g id="Layer_x0020_1">
  <metadata id="CorelCorpID_0Corel-Layer"/>
  <g id="_2626334417632">
   <path class="fil0" d="M40.81 20.4c0,11.27 -9.14,20.41 -20.41,20.41 -11.26,0 -20.4,-9.14 -20.4,-20.41 0,-11.26 9.14,-20.4 20.4,-20.4 11.27,0 20.41,9.14 20.41,20.4z"/>
   <path class="fil1" d="M21.98 17.62c0.34,-0.38 0.61,-0.76 0.96,-1.08 1.06,-1 2.31,-1.5 3.77,-1.49 0.8,0.01 1.6,0.06 2.37,0.29 1.77,0.51 2.8,1.73 3.29,3.46 0.37,1.3 0.44,2.63 0.44,3.97 0.01,2.81 -0.01,5.63 0,8.45 0,0.27 -0.07,0.33 -0.33,0.33 -1.46,-0.01 -2.91,-0.01 -4.36,0 -0.26,0 -0.31,-0.07 -0.31,-0.32 0.01,-2.68 0.01,-5.36 0,-8.04 0,-0.67 -0.04,-1.35 -0.23,-2 -0.35,-1.2 -1.21,-1.82 -2.47,-1.75 -1.72,0.09 -2.62,0.94 -2.84,2.69 -0.05,0.42 -0.08,0.84 -0.08,1.26 0.01,2.61 0,5.22 0.01,7.83 0,0.26 -0.06,0.34 -0.33,0.33 -1.46,-0.01 -2.93,-0.01 -4.39,0 -0.23,0 -0.3,-0.06 -0.3,-0.3 0.01,-5.16 0.01,-10.33 0,-15.49 0,-0.26 0.08,-0.31 0.32,-0.31 1.39,0.01 2.78,0.01 4.17,0 0.26,-0.01 0.32,0.08 0.32,0.32 -0.02,0.62 -0.01,1.23 -0.01,1.85zm-7.55 -7.3c0,1.61 -1.3,2.91 -2.9,2.91 -1.58,0 -2.9,-1.3 -2.9,-2.88 -0.01,-1.6 1.31,-2.91 2.9,-2.91 1.59,0 2.9,1.3 2.9,2.88zm-0.4 13.2c0,2.56 -0.01,5.11 0,7.67 0,0.28 -0.07,0.37 -0.36,0.36 -1.45,-0.01 -2.9,-0.01 -4.36,0 -0.23,0 -0.3,-0.06 -0.3,-0.3 0.01,-5.17 0.01,-10.34 0,-15.51 0,-0.22 0.06,-0.29 0.28,-0.29 1.48,0.01 2.95,0.01 4.42,0 0.28,-0.01 0.32,0.1 0.32,0.35 -0.01,2.57 0,5.15 0,7.72z"/>
  </g>
 </g>
</svg>
