<?xml version="1.0" encoding="UTF-8"?>
<!DOCTYPE svg PUBLIC "-//W3C//DTD SVG 1.1//EN" "http://www.w3.org/Graphics/SVG/1.1/DTD/svg11.dtd">
<!-- Creator: CorelDRAW 2021 (64-Bit) -->
<svg xmlns="http://www.w3.org/2000/svg" xml:space="preserve" width="144px" height="144px" version="1.1" style="shape-rendering:geometricPrecision; text-rendering:geometricPrecision; image-rendering:optimizeQuality; fill-rule:evenodd; clip-rule:evenodd"
viewBox="0 0 35.94 35.94"
 xmlns:xlink="http://www.w3.org/1999/xlink"
 xmlns:xodm="http://www.corel.com/coreldraw/odm/2003">
 <defs>
  <style type="text/css">
   <![CDATA[
    .fil1 {fill:white}
    .fil0 {fill:black;fill-rule:nonzero}
   ]]>
  </style>
 </defs>
 <g id="Layer_x0020_1">
  <metadata id="CorelCorpID_0Corel-Layer"/>
  <g id="_2626341165744">
   <path class="fil0" d="M17.97 0c9.93,0 17.97,8.05 17.97,17.97 0,9.93 -8.04,17.97 -17.97,17.97 -9.92,0 -17.97,-8.04 -17.97,-17.97 0,-9.92 8.05,-17.97 17.97,-17.97z"/>
   <path class="fil1" d="M23.61 35.06c-1.77,0.57 -3.67,0.88 -5.64,0.88 -1.97,0 -3.87,-0.31 -5.64,-0.88l0.04 0.01 0 0 0.04 0 0 0 0.04 0.01 0 0 0.03 0 0.01 0 0.03 0 0 0 0.04 0 0 0 0 0 0.04 0 0.03 0 0 0 0.03 0 0.01 0 0.03 0 0 0 0.03 0 0 -0.01 0.03 0 0 0 0.03 0 0.01 0 0.02 -0.01 0.01 0 0.02 0 0.01 -0.01 0.02 0 0 0 0.03 -0.01 0 0 0.03 -0.01 0 0 0.02 -0.01 0.01 0 0.02 -0.01 0 0 0.02 -0.01 0.01 0 0.02 -0.01 0 0 0.02 -0.01 0.01 0 0.01 -0.01 0.01 -0.01 0.02 0 0.02 -0.02 0 0 0.01 0 0.01 -0.01 0.01 -0.01 0.01 -0.01 0.01 0 0.01 -0.01 0.01 -0.01 0.01 -0.01 0.01 0 0.01 -0.01 0.01 -0.01 0.01 -0.02 0.01 -0.01 0.01 0 0.01 -0.01 0.01 -0.01 0.01 -0.01 0 -0.01 0.01 -0.01 0.01 -0.01 0.01 -0.01 0 -0.01 0.01 -0.01 0.01 -0.01 0 -0.01 0.01 -0.01 0.01 -0.01 0 -0.01 0.01 0 0.01 -0.02 0 0 0.01 -0.02 0 -0.01 0.01 -0.01c0.01,-0.03 0.03,-0.05 0.04,-0.08l0 0 0 -0.01 0.01 -0.02 0 -0.02 0.01 0 0 -0.02 0.01 -0.05 0 0 0.01 -0.02c0,-0.02 0.01,-0.04 0.01,-0.07l0 0 0 -0.02 0.01 -0.04 0 0 0 -0.03 0 0 0 -0.02 0 0 0 -0.02 0 0 0 -0.02 0 0 0 -0.07 0 -0.02 0 -0.06 0 -0.03 0 0 0 -0.03 0 -0.03 0 0 0 -0.03 0 0 0 -0.04 0 -0.03 0 -0.04 0 0 0 -0.04 0 0 0 -0.04 0 0 0 -0.04 0 0 0 -0.04 0 0 0 -0.04 0 -0.04 0 0 0 -0.05 0 0 0 -0.04 0 0 0 -0.05 0 -0.05 0 0 0 -0.04 0 0 0 -0.05 0 0 0 -0.05 0 0 0 -0.06 0 -0.05 0 0 0 -0.05 -0.01 -0.05 0 -0.06 0 0 0 -0.05 0 -0.06 0 0 0 -0.06 0 0 0 -0.06 0 -0.05 0 0 0 -0.06 0 0 0 -0.06 0 -0.06 0 -0.06 0 0 0 -0.07 0 -0.06 0 -0.06 0 -0.07 0 -0.06 0 -0.06 0 -0.07 0 0 0 -0.06 0 -0.07 0 -0.07 -0.01 0 0 -0.06 0 -0.07 0 -0.07 0 -0.07 0 -0.07 0 -0.06 0 -0.07 0 0 0 -0.07 0 -0.07 0 -0.07 0 -0.07 0 -0.07 0 -0.07 0 -0.07c-0.08,0.02 -0.16,0.03 -0.23,0.05l-0.23 0.04c-0.07,0.01 -0.15,0.02 -0.22,0.03l0 0 -0.21 0.03 -0.21 0.03c-0.07,0.01 -0.14,0.01 -0.21,0.02l0 0 -0.19 0.01c-0.07,0 -0.13,0.01 -0.2,0.01l-0.19 0 -0.18 0 -0.18 0 -0.17 -0.01 -0.17 -0.02 0 0 -0.16 -0.02 0 0 -0.16 -0.02 -0.15 -0.02 -0.15 -0.03 -0.14 -0.04 0 0 -0.14 -0.03 -0.13 -0.04 0 0 -0.13 -0.04 0 0 -0.13 -0.05 -0.12 -0.05 -0.12 -0.05 -0.11 -0.05 0 0 -0.11 -0.05 0 0c-0.03,-0.02 -0.07,-0.04 -0.1,-0.06l0 0 -0.1 -0.05 0 0 -0.1 -0.06 0 0 -0.09 -0.06 -0.09 -0.06 -0.09 -0.06 0 0 -0.08 -0.07 -0.08 -0.06 -0.07 -0.07 -0.07 -0.06 -0.07 -0.06 -0.06 -0.07 -0.07 -0.06 -0.05 -0.07 -0.06 -0.06 -0.05 -0.06 -0.05 -0.06 0 0 -0.04 -0.06 -0.05 -0.06 -0.04 -0.06 0 0 -0.03 -0.05 -0.04 -0.06 -0.03 -0.05 -0.03 -0.05 -0.03 -0.05 -0.02 -0.04 -0.02 -0.05 -0.02 -0.04 -0.02 -0.03 -0.02 -0.04 -0.01 -0.03 0 0 -0.01 -0.03 -0.01 -0.02 -0.01 -0.02 0 -0.01 -0.01 -0.01 0 -0.01 0 0 -0.04 -0.1 -0.04 -0.09 -0.04 -0.1 -0.04 -0.09 0 0 -0.04 -0.08 0 0 -0.04 -0.09 0 0 -0.04 -0.08 -0.04 -0.08 -0.04 -0.08 -0.04 -0.08 -0.05 -0.08 -0.04 -0.07 -0.04 -0.07 -0.04 -0.07 0 0 -0.05 -0.07 -0.04 -0.06 0 0 -0.04 -0.07 -0.04 -0.06 -0.04 -0.06 0 0 -0.05 -0.06 -0.04 -0.05 0 0 -0.04 -0.06 0 0 -0.04 -0.05 -0.04 -0.05 -0.04 -0.05 -0.04 -0.05 -0.04 -0.04 0 0 -0.04 -0.05 -0.04 -0.04 0 0 -0.04 -0.04 0 0 -0.04 -0.04 0 0 -0.04 -0.04 -0.03 -0.04 -0.04 -0.03 -0.03 -0.03 -0.04 -0.04 -0.03 -0.03 -0.04 -0.03 0 0 -0.03 -0.02 -0.03 -0.03 0 0 -0.03 -0.03 -0.03 -0.02 -0.03 -0.02 -0.03 -0.02 -0.03 -0.02 -0.02 -0.02 -0.03 -0.02 0 0 -0.02 -0.02 -0.02 -0.01 -0.02 -0.02 -0.02 -0.01 -0.02 -0.01 -0.02 -0.01 -0.02 -0.01 -0.01 -0.01 -0.02 -0.01 -0.01 0 -0.01 -0.01 -0.01 0 0 -0.01 -0.01 0 0 0 -0.01 -0.01 0 0 -0.07 -0.05 -0.07 -0.05 -0.07 -0.04 -0.06 -0.05 -0.05 -0.05 0 0 -0.05 -0.04 0 0 -0.05 -0.04 -0.04 -0.04 -0.04 -0.04 0 0 -0.03 -0.04 -0.04 -0.04 -0.02 -0.03 0 0 -0.03 -0.03 -0.02 -0.04 0 0 -0.01 -0.03 -0.02 -0.03 0 0 -0.01 -0.03 -0.01 -0.02 0 -0.03 0 -0.02 0 -0.03 0 -0.02 0.01 -0.02 0 -0.02 0.01 -0.02 0.02 -0.02 0.01 -0.02 0.01 -0.01 0 0 0.02 -0.02 0 0 0.02 -0.01 0 0 0.02 -0.02 0.02 -0.01 0.02 -0.01 0.03 -0.01 0.02 -0.01 0.03 -0.01 0.02 -0.01 0.03 -0.01 0.03 -0.01 0 0 0.03 -0.01 0.02 0 0.03 -0.01 0.03 -0.01 0.03 0 0.03 0 0.02 -0.01 0.03 0 0.03 0 0.02 -0.01 0 0 0.03 0 0.02 0 0.02 0 0.03 0 0.02 -0.01 0 0 0.02 0 0.01 0 0.02 0 0.01 0 0.02 0 0.01 0 0 0 0.01 0 0 0 0.01 0c1.8,0.13 2.75,1.85 2.75,1.85 1.61,2.75 4.21,1.96 5.24,1.5l0 -0.05 0.01 -0.06 0.01 -0.05 0.01 -0.05 0.01 -0.06 0.01 -0.05 0.01 -0.05 0.01 -0.05 0.01 -0.05 0.01 -0.05 0.02 -0.05 0 0 0.01 -0.05 0 0 0.01 -0.04 0 0 0.01 -0.05 0 0 0.02 -0.05 0.01 -0.04 0.01 -0.05 0 0 0.02 -0.04 0 0 0.01 -0.05 0.02 -0.04 0 0 0.01 -0.05 0.02 -0.04 0.02 -0.04 0.01 -0.04 0.02 -0.04 0 -0.01 0.02 -0.04 0 0 0.03 -0.08 0 0 0.02 -0.04 0.02 -0.03 0 0 0.02 -0.04 0 0 0.02 -0.04 0 0 0.01 -0.04 0 0 0.02 -0.03 0.02 -0.04 0.02 -0.04 0.02 -0.03 0.02 -0.04 0 0 0.02 -0.03 0 0 0.02 -0.03 0.02 -0.04 0 0 0.03 -0.03 0 0 0.02 -0.03 0 0 0.02 -0.03 0 0 0.04 -0.06 0.02 -0.03 0 0 0.03 -0.03 0 0 0.04 -0.06 0.05 -0.06 0 0 0.02 -0.02 0 0c0.04,-0.06 0.09,-0.11 0.14,-0.15l0 0c0.04,-0.04 0.08,-0.08 0.12,-0.12l0 0 -0.19 -0.02 0 0 -0.19 -0.02 0 0 -0.18 -0.03 0 0 -0.19 -0.02 0 0 -0.19 -0.03 0 0 -0.19 -0.04 0 0 -0.18 -0.03 0 0 -0.19 -0.04 0 0 -0.19 -0.03 0 0 -0.18 -0.04 0 0 -0.19 -0.05 0 0 -0.18 -0.04 0 0 -0.18 -0.05 0 0 -0.19 -0.05 0 0 -0.18 -0.06 -0.18 -0.06 -0.18 -0.06 0 0 -0.17 -0.06 -0.18 -0.07c-0.06,-0.02 -0.11,-0.05 -0.17,-0.07l0 0c-0.06,-0.02 -0.12,-0.05 -0.17,-0.07l-0.18 -0.08 -0.16 -0.08 -0.17 -0.09 -0.16 -0.09 -0.17 -0.09 -0.16 -0.1 -0.15 -0.1c-0.06,-0.04 -0.11,-0.07 -0.16,-0.11l-0.15 -0.11 0 0c-0.05,-0.04 -0.1,-0.08 -0.15,-0.12 -0.05,-0.04 -0.1,-0.08 -0.15,-0.12 -0.05,-0.04 -0.09,-0.08 -0.14,-0.12l-0.14 -0.13c-0.05,-0.04 -0.09,-0.09 -0.14,-0.13l0 0c-0.04,-0.05 -0.09,-0.1 -0.13,-0.14 -0.05,-0.05 -0.09,-0.1 -0.13,-0.15 -0.05,-0.05 -0.09,-0.1 -0.13,-0.15 -0.04,-0.05 -0.09,-0.1 -0.13,-0.15 -0.04,-0.06 -0.08,-0.11 -0.12,-0.16l0 0c-0.04,-0.06 -0.08,-0.11 -0.11,-0.17l0 0c-0.04,-0.05 -0.08,-0.11 -0.12,-0.17l0 0c-0.03,-0.06 -0.07,-0.12 -0.11,-0.18 -0.03,-0.06 -0.07,-0.12 -0.1,-0.18 -0.03,-0.06 -0.07,-0.13 -0.1,-0.19 -0.03,-0.06 -0.07,-0.13 -0.1,-0.19 -0.03,-0.07 -0.06,-0.14 -0.09,-0.2 -0.03,-0.07 -0.06,-0.14 -0.09,-0.21 -0.03,-0.07 -0.05,-0.14 -0.08,-0.21 -0.03,-0.08 -0.05,-0.15 -0.08,-0.22 -0.02,-0.08 -0.05,-0.15 -0.07,-0.23 -0.03,-0.08 -0.05,-0.15 -0.07,-0.23 -0.02,-0.08 -0.05,-0.16 -0.07,-0.24 -0.02,-0.08 -0.04,-0.17 -0.06,-0.25 -0.01,-0.08 -0.03,-0.17 -0.05,-0.25 -0.02,-0.09 -0.03,-0.17 -0.05,-0.26 -0.01,-0.09 -0.03,-0.18 -0.04,-0.27 -0.01,-0.09 -0.03,-0.18 -0.04,-0.27 -0.01,-0.1 -0.02,-0.19 -0.03,-0.28 -0.01,-0.1 -0.02,-0.2 -0.03,-0.29 -0.01,-0.1 -0.01,-0.2 -0.02,-0.3 -0.01,-0.1 -0.01,-0.2 -0.01,-0.3 -0.01,-0.11 -0.01,-0.21 -0.01,-0.31 -0.01,-0.11 -0.01,-0.22 -0.01,-0.32l0 -0.1 0.01 -0.09 0 -0.09 0 -0.09 0.01 -0.09 0 -0.09 0.01 -0.09 0.01 -0.08 0 -0.09 0.01 -0.09 0.01 -0.08 0 0 0.02 -0.09 0 0 0.01 -0.09 0 0 0.01 -0.08 0 0 0.02 -0.09 0.01 -0.08 0.02 -0.08 0 0 0.01 -0.09 0.02 -0.08 0 0 0.02 -0.08 0.02 -0.08 0.02 -0.08 0.02 -0.08 0 0 0.03 -0.08 0.02 -0.08 0 0 0.02 -0.08 0.03 -0.08 0 0 0.03 -0.08 0 0 0.02 -0.07 0 0 0.03 -0.08 0 0 0.03 -0.08 0.03 -0.07 0 0 0.03 -0.08 0 0 0.03 -0.07 0 0 0.03 -0.08 0.04 -0.07 0 0 0.03 -0.07 0.03 -0.07 0 0 0.04 -0.08 0 0 0.04 -0.07 0 0 0.03 -0.07 0.04 -0.07 0.04 -0.07 0.04 -0.07 0.04 -0.07 0.04 -0.07 0 0 0.04 -0.06 0.04 -0.07 0.05 -0.07 0.04 -0.07 0.04 -0.06 0.05 -0.07 0.04 -0.06 0.05 -0.07 0.05 -0.06 0.05 -0.06 0.05 -0.07 0 0 0.05 -0.06 0.05 -0.06 0 0 0.05 -0.06 0 0 0.05 -0.06 0.05 -0.06 0 0 0.05 -0.06 0 0 0.06 -0.06 0 0 -0.01 -0.02 -0.01 -0.03 0 0 -0.01 -0.02 0 0 -0.01 -0.03 0 0 -0.01 -0.03 -0.02 -0.03 -0.01 -0.04 -0.01 -0.03 -0.01 -0.04 -0.01 -0.04 0 0 -0.02 -0.04 -0.01 -0.05 -0.01 -0.04 -0.02 -0.05 0 0 -0.01 -0.05 -0.01 -0.05 -0.01 -0.05 -0.02 -0.05 -0.01 -0.06 -0.01 -0.06 -0.01 -0.06 -0.02 -0.06 -0.01 -0.06 -0.01 -0.06 -0.01 -0.07 0 0 -0.01 -0.07 0 0 -0.01 -0.06 -0.01 -0.08 0 -0.07 -0.01 -0.07 -0.01 -0.08 0 -0.07 -0.01 -0.08 0 -0.08 0 0 0 -0.08 -0.01 -0.08 0 -0.09 0 -0.08 0.01 -0.09 0 -0.09 0 -0.09 0.01 -0.09 0 -0.09 0.01 -0.09 0.01 -0.1 0.01 -0.09 0.01 -0.1 0.02 -0.1 0.01 -0.1 0.02 -0.1 0.02 -0.1 0.02 -0.1 0.02 -0.1 0.02 -0.11 0.03 -0.11 0.03 -0.1 0.03 -0.11 0.03 -0.11 0.03 -0.11 0.04 -0.11 0.03 -0.12 0.04 -0.11 0.05 -0.12 0.04 -0.11 0 0 0.01 0 0 0 0.01 -0.01 0.01 0 0.01 0 0.02 0 0.01 -0.01 0.02 0 0.02 0 0.03 -0.01 0.02 0 0.03 0 0.03 -0.01 0.04 0 0.03 0 0.04 0 0.04 0 0.04 0 0.05 0 0.04 0 0.05 0 0.06 0 0.05 0.01 0.06 0 0.06 0.01 0.06 0.01 0.06 0.01 0.07 0.01 0.07 0.01 0.07 0.01 0.08 0.02 0.07 0.01 0.08 0.02 0.08 0.02 0.09 0.03 0.09 0.02 0.09 0.03 0 0 0.09 0.03 0.09 0.03 0.1 0.03 0 0 0.1 0.04 0.1 0.03 0.11 0.04 0.11 0.05 0.11 0.04 0.11 0.05 0.12 0.05 0.11 0.06 0.13 0.05 0.12 0.06 0.13 0.07 0 0 0.13 0.07 0.13 0.07 0 0 0.13 0.07 0 0 0.14 0.08 0.14 0.08 0 0 0.14 0.08 0 0 0.15 0.09 0.15 0.09 0 0 0.15 0.09 0.15 0.1 0 0 0.16 0.11 0 0 0.16 0.1 0 0 0.07 -0.02 0 0 0.06 -0.01 0 0 0.07 -0.02 0 0 0.07 -0.02 0 0 0.07 -0.02 0 0 0.06 -0.01 0 0 0.07 -0.02 0 0 0.07 -0.02 0 0 0.07 -0.01 0 0 0.07 -0.02 0 0 0.07 -0.02 0 0 0.07 -0.01 0 0 0.06 -0.02 0 0 0.07 -0.01 0.07 -0.01 0 0 0.07 -0.02 0.07 -0.01 0 0 0.07 -0.02 0.07 -0.01 0 0 0.07 -0.01 0.07 -0.02 0 0 0.07 -0.01 0.07 -0.01 0 0 0.07 -0.01 0 0 0.07 -0.01 0 0 0.07 -0.01 0.07 -0.02 0 0 0.07 -0.01 0 0 0.07 -0.01 0.07 -0.01 0.07 -0.01 0.07 -0.01 0.08 -0.01 0.07 -0.01 0.07 0 0.07 -0.01 0.07 -0.01 0.07 -0.01 0.07 -0.01 0.07 0 0.07 -0.01 0.08 -0.01 0.07 0 0.07 -0.01 0.07 -0.01 0.07 0 0.07 -0.01 0.07 0 0.08 -0.01 0.07 0 0.07 0 0 0 0.07 -0.01 0 0 0.07 0 0 0 0.07 -0.01 0.08 0 0.07 0 0.07 0 0.07 -0.01 0.07 0 0 0 0.07 0 0.08 0 0.07 0 0.07 0 0.07 0 0.07 0 0.07 0 0.08 0 0.07 0 0.07 0 0.07 0 0.07 0.01 0.07 0 0.08 0 0.07 0 0.07 0.01 0.07 0 0.07 0.01 0.07 0 0.08 0 0.07 0.01 0.07 0 0.07 0.01 0.07 0 0.07 0.01 0 0 0.07 0.01 0.08 0 0.07 0.01 0.07 0.01 0.07 0 0.07 0.01 0 0 0.07 0.01 0.07 0.01 0.07 0.01 0.08 0 0.07 0.01 0.07 0.01 0.07 0.01 0 0 0.07 0.01 0 0 0.07 0.01 0.07 0.01 0 0 0.07 0.01 0.07 0.02 0.07 0.01 0 0 0.07 0.01 0.07 0.01 0.07 0.01 0.07 0.01 0.07 0.02 0 0 0.07 0.01 0.07 0.01 0 0 0.07 0.02 0.07 0.01 0 0 0.07 0.02 0.07 0.01 0.07 0.01 0 0 0.07 0.02 0.07 0.01 0.07 0.02 0.06 0.02 0.07 0.01 0.07 0.02 0.07 0.02 0.07 0.01 0.07 0.02 0.06 0.02 0.07 0.02 0.07 0.01 0.07 0.02c3.43,-2.32 4.94,-1.84 4.94,-1.84l0.04 0.11 0.04 0.12 0.04 0.11 0.04 0.12 0.04 0.11 0.03 0.11 0.03 0.11 0.03 0.11 0.03 0.1 0.03 0.11 0.02 0.11 0.02 0.1 0.02 0.1 0.02 0.1 0.02 0.1 0.01 0.1 0.02 0.1 0.01 0.1 0.01 0.09 0.01 0.1 0.01 0.09 0 0 0 0.09 0.01 0.09 0 0.09 0.01 0.09 0 0.09 0 0.08 0 0.09 -0.01 0.08 0 0.08 0 0 0 0.08 -0.01 0.08 0 0.07 -0.01 0.08 -0.01 0.07 0 0.07 0 0 -0.01 0.08 0 0c-0.01,0.06 -0.02,0.13 -0.03,0.2l-0.01 0.06 0 0 -0.01 0.06 0 0 -0.01 0.06 -0.01 0 -0.01 0.06 -0.01 0.06 -0.01 0.06 0 0 -0.01 0.05 0 0 -0.02 0.05 -0.01 0.05 -0.01 0.05 0 0 -0.02 0.05 -0.01 0.04 -0.01 0.05 -0.01 0.04 0 0 -0.02 0.04 -0.01 0.04 -0.01 0.03 0 0 -0.01 0.04 0 0 -0.02 0.03 0 0 -0.01 0.03 0 0 -0.01 0.03 0 0 -0.01 0.02 0 0 -0.01 0.03 0 0 -0.01 0.02 0 0c0.06,0.06 0.11,0.12 0.16,0.18l0 0c0.06,0.06 0.11,0.12 0.16,0.18l0 0 0.09 0.13 0 0 0.05 0.06 0 0 0.05 0.06 0.05 0.07 0 0 0.04 0.06 0 0 0.05 0.07 0.04 0.06 0.05 0.07 0.04 0.07 0.04 0.07 0.04 0.06 0 0 0.04 0.07 0.04 0.07 0.04 0.07 0.04 0.07 0.04 0.07 0.04 0.07 0 0 0.03 0.07 0 0 0.04 0.08 0 0 0.03 0.07 0.04 0.07 0 0 0.03 0.07 0.06 0.15 0 0 0.03 0.08 0 0 0.03 0.07 0 0 0.06 0.16 0 0 0.02 0.07 0 0 0.06 0.16 0 0 0.02 0.08 0 0 0.02 0.08 0.05 0.16 0 0 0.02 0.08 0.02 0.08 0.02 0.08 0 0 0.01 0.08 0.04 0.17 0 0 0.01 0.08c0.03,0.15 0.05,0.29 0.06,0.43l0.01 0 0 0.09 0 0 0.01 0.09 0 0 0.01 0.08 0 0 0.01 0.09 0 0 0 0.09 0 0 0.01 0.09 0 0 0 0.09 0 0 0 0.09 0 0 0 0.09 0 0 0 0.1c0,0.1 0,0.21 0,0.32l0 0c0,0.1 0,0.21 -0.01,0.31l0 0c0,0.1 -0.01,0.2 -0.01,0.3l0 0c-0.01,0.1 -0.02,0.2 -0.02,0.3l0 0c-0.01,0.1 -0.02,0.19 -0.03,0.29l0 0c-0.01,0.09 -0.02,0.19 -0.03,0.28l0 0c-0.01,0.09 -0.03,0.19 -0.04,0.28l0 0c-0.01,0.09 -0.03,0.17 -0.04,0.26l0 0c-0.02,0.09 -0.04,0.18 -0.05,0.26l0 0c-0.02,0.09 -0.04,0.17 -0.06,0.26l0 0c-0.02,0.08 -0.03,0.16 -0.06,0.24l0 0c-0.02,0.08 -0.04,0.16 -0.06,0.24l0 0c-0.02,0.08 -0.04,0.16 -0.07,0.24l0 0c-0.02,0.07 -0.05,0.15 -0.07,0.22l0 0c-0.03,0.08 -0.05,0.15 -0.08,0.22l0 0c-0.03,0.07 -0.06,0.14 -0.08,0.21 -0.03,0.07 -0.06,0.14 -0.09,0.21l0 0c-0.03,0.07 -0.06,0.14 -0.1,0.2l0 0c-0.03,0.07 -0.06,0.13 -0.09,0.2 -0.04,0.06 -0.07,0.12 -0.1,0.19l0 0c-0.04,0.06 -0.07,0.12 -0.11,0.18l0 0c-0.03,0.06 -0.07,0.12 -0.11,0.18l0 0c-0.03,0.05 -0.07,0.11 -0.11,0.17l0 0c-0.04,0.05 -0.08,0.11 -0.12,0.16l0 0c-0.04,0.06 -0.08,0.11 -0.12,0.16l0 0c-0.04,0.06 -0.08,0.11 -0.12,0.16l0 0c-0.04,0.05 -0.09,0.1 -0.13,0.15l0 0c-0.04,0.05 -0.09,0.09 -0.13,0.14l0 0c-0.05,0.05 -0.09,0.09 -0.14,0.14l0 0c-0.04,0.05 -0.09,0.09 -0.13,0.13l0 0c-0.05,0.05 -0.1,0.09 -0.15,0.13 -0.04,0.04 -0.09,0.09 -0.14,0.13l0 0c-0.05,0.04 -0.1,0.08 -0.15,0.12l0 0 -0.15 0.11 0 0 -0.15 0.11c-0.05,0.04 -0.1,0.07 -0.15,0.11l0 0c-0.06,0.03 -0.11,0.07 -0.16,0.1l0 0c-0.05,0.03 -0.11,0.06 -0.16,0.1l0 0c-0.06,0.03 -0.11,0.06 -0.16,0.09l0 0 -0.17 0.09 -0.17 0.08 0 0 -0.16 0.08 0 0 -0.18 0.08 0 0 -0.17 0.08 0 0 -0.17 0.07 -0.18 0.06 0 0 -0.18 0.07 0 0 -0.17 0.06 -0.01 0 -0.18 0.05 -0.18 0.06 0 0 -0.18 0.05 0 0 -0.18 0.05 0 0 -0.19 0.04 -0.18 0.05 0 0 -0.19 0.04 0 0 -0.18 0.03 -0.01 0 -0.18 0.04 0 0 -0.19 0.03 0 0 -0.19 0.03 0 0 -0.19 0.03 0 0 -0.18 0.03 0 0 -0.19 0.03 0 0 -0.19 0.02 0 0 -0.19 0.02 0 0c0.06,0.05 0.12,0.11 0.18,0.17l0 0 0.03 0.03 0 0 0.03 0.04 0 0 0.03 0.03 0 0 0.03 0.03 0 0 0.03 0.04 0.02 0.03 0.03 0.04 0 0 0.03 0.03 0 0 0.03 0.04 0 0 0.02 0.04 0.01 0 0.02 0.04 0.03 0.04 0 0 0.03 0.04 0.02 0.04 0.03 0.04 0.02 0.05 0.03 0.04 0.02 0.05 0.03 0.04 0.02 0.05 0.02 0.05 0 0 0.03 0.04 0.02 0.05 0.02 0.05 0.02 0.05 0.02 0.06 0.02 0.05 0.03 0.05 0.01 0.06 0.02 0.05 0.02 0.06 0.02 0.05 0 0 0.02 0.06 0 0 0.02 0.06 0.01 0.06 0.02 0.06 0 0 0.01 0.06 0.02 0.06 0.01 0.06 0.02 0.06 0.01 0.07 0 0 0.01 0.06 0.01 0.07 0.01 0.06 0.02 0.07 0 0.07 0.01 0.07 0.01 0.07 0 0 0.01 0.07 0.01 0.07 0 0.07 0.01 0.07 0 0.08 0.01 0.07 0 0.08 0 0.08 0 0.07 0 0.08c0,2.41 -0.02,4.34 -0.02,4.94l0 0.02 0 0 0 0.02 0 0 0 0.02 0 0 0.01 0.03 0 0 0 0.02 0 0 0 0.02 0 0 0 0.02 0 0.01 0.01 0.01 0 0.01 0 0.02 0 0 0.01 0.02 0 0 0 0.02 0 0.01 0.01 0.01 0 0.01 0 0.02 0 0 0.01 0.02 0 0 0.01 0.02 0 0.02 0.01 0.01 0 0.01 0 0.01 0.01 0.01 0 0.01 0.01 0.02 0 0 0.01 0.02 0 0 0.01 0.02 0.01 0.01 0 0.01 0.01 0.01 0 0.01 0.01 0.01 0.01 0.01 0 0.01 0.01 0.01 0.01 0.01 0 0.01 0.01 0.01 0.01 0 0 0.01 0.01 0.01 0.01 0.01 0.01 0.01 0.01 0.01 0 0.01 0.01 0.01 0.01 0.01 0.01 0.01 0.01 0 0.01 0.01 0 0.01 0.02 0.01 0 0.01 0.02 0.01 0 0 0.02 0.01 0 0.01 0.02 0.01 0 0 0.02 0.01 0 0 0.02 0.01 0 0.01 0.02 0.01 0.01 0 0.02 0.01 0 0 0.02 0.01 0 0 0.02 0.01 0.01 0.01 0.02 0 0 0.01 0.03 0 0 0.01 0.02 0 0.01 0 0.02 0.01 0 0 0.03 0.01 0 0 0.03 0.01 0 0 0.03 0 0 0 0.03 0.01 0 0 0.03 0 0 0 0.03 0.01 0 0 0.03 0 0.01 0 0.03 0 0 0 0.03 0 0.01 0 0.03 0 0 0 0 0c0.04,0 0.08,0 0.11,0l0.03 0 0.01 -0.01 0.03 0 0.01 0 0.03 0 0.01 -0.01 0.03 0zm-10.22 -5.93c0.02,0.14 -0.13,0.29 -0.34,0.33 -0.21,0.04 -0.4,-0.05 -0.43,-0.19 -0.02,-0.15 0.13,-0.3 0.34,-0.34 0.21,-0.04 0.4,0.05 0.43,0.2zm-1.37 0.23c0,0.15 -0.17,0.27 -0.38,0.28 -0.22,0 -0.39,-0.12 -0.39,-0.27 0,-0.15 0.16,-0.27 0.38,-0.27 0.21,-0.01 0.39,0.11 0.39,0.26zm-1.47 -0.11c-0.05,0.14 -0.25,0.21 -0.45,0.15 -0.21,-0.06 -0.34,-0.23 -0.3,-0.37 0.04,-0.14 0.25,-0.21 0.45,-0.14 0.21,0.06 0.34,0.22 0.3,0.36zm-1.34 -0.58c-0.1,0.11 -0.31,0.08 -0.47,-0.07 -0.15,-0.14 -0.2,-0.35 -0.1,-0.46 0.1,-0.1 0.31,-0.07 0.47,0.07 0.15,0.15 0.2,0.35 0.1,0.46zm-0.98 -1c-0.11,0.08 -0.29,0.01 -0.4,-0.15 -0.11,-0.16 -0.11,-0.36 0.01,-0.43 0.11,-0.08 0.28,-0.01 0.4,0.15 0.11,0.16 0.11,0.35 -0.01,0.43zm-0.7 -1.03c-0.09,0.08 -0.26,0.04 -0.37,-0.09 -0.12,-0.12 -0.14,-0.29 -0.05,-0.37 0.08,-0.08 0.25,-0.04 0.36,0.08 0.12,0.13 0.15,0.3 0.06,0.38zm-0.73 -0.82c-0.04,0.09 -0.18,0.12 -0.31,0.06 -0.13,-0.06 -0.21,-0.18 -0.16,-0.27 0.04,-0.09 0.18,-0.12 0.31,-0.06 0.13,0.06 0.2,0.18 0.16,0.27z"/>
  </g>
 </g>
</svg>
