<?xml version="1.0" encoding="UTF-8"?>
<!DOCTYPE svg PUBLIC "-//W3C//DTD SVG 1.1//EN" "http://www.w3.org/Graphics/SVG/1.1/DTD/svg11.dtd">
<!-- Creator: CorelDRAW 2021 (64-Bit) -->
<svg xmlns="http://www.w3.org/2000/svg" xml:space="preserve" width="144px" height="144px" version="1.1" style="shape-rendering:geometricPrecision; text-rendering:geometricPrecision; image-rendering:optimizeQuality; fill-rule:evenodd; clip-rule:evenodd"
viewBox="0 0 23.87 23.87"
 xmlns:xlink="http://www.w3.org/1999/xlink"
 xmlns:xodm="http://www.corel.com/coreldraw/odm/2003">
 <defs>
  <style type="text/css">
   <![CDATA[
    .fil0 {fill:black;fill-rule:nonzero}
    .fil1 {fill:white;fill-rule:nonzero}
   ]]>
  </style>
 </defs>
 <g id="Layer_x0020_1">
  <metadata id="CorelCorpID_0Corel-Layer"/>
  <g id="_2626027913968">
   <path class="fil0" d="M11.94 0c6.59,0 11.93,5.34 11.93,11.94 0,6.59 -5.34,11.93 -11.93,11.93 -6.6,0 -11.94,-5.34 -11.94,-11.93 0,-6.6 5.34,-11.94 11.94,-11.94z"/>
   <path class="fil1" d="M11.94 4.42c-2.04,0 -2.3,0.01 -3.1,0.05 -0.8,0.03 -1.35,0.16 -1.83,0.35 -0.49,0.19 -0.91,0.44 -1.33,0.86 -0.42,0.42 -0.67,0.84 -0.86,1.33 -0.19,0.48 -0.32,1.03 -0.35,1.83 -0.04,0.8 -0.05,1.06 -0.05,3.1 0,2.04 0.01,2.29 0.05,3.1 0.03,0.8 0.16,1.34 0.35,1.82 0.19,0.49 0.44,0.91 0.86,1.33 0.42,0.42 0.84,0.68 1.33,0.87 0.48,0.18 1.03,0.31 1.83,0.35 0.8,0.03 1.06,0.04 3.1,0.04 2.04,0 2.29,-0.01 3.1,-0.04 0.8,-0.04 1.34,-0.17 1.82,-0.35 0.49,-0.19 0.91,-0.45 1.33,-0.87 0.42,-0.42 0.68,-0.84 0.87,-1.33 0.18,-0.48 0.31,-1.02 0.35,-1.82 0.03,-0.81 0.04,-1.06 0.04,-3.1 0,-2.04 -0.01,-2.3 -0.04,-3.1 -0.04,-0.8 -0.17,-1.35 -0.35,-1.83 -0.19,-0.49 -0.45,-0.91 -0.87,-1.33 -0.42,-0.42 -0.84,-0.67 -1.33,-0.86 -0.48,-0.19 -1.02,-0.32 -1.82,-0.35 -0.81,-0.04 -1.06,-0.05 -3.1,-0.05l0 0zm0 1.36c2,0 2.24,0 3.03,0.04 0.74,0.03 1.13,0.15 1.4,0.26 0.35,0.13 0.6,0.3 0.86,0.56 0.27,0.26 0.43,0.51 0.57,0.86 0.1,0.27 0.22,0.67 0.25,1.4 0.04,0.79 0.05,1.03 0.05,3.04 0,2 -0.01,2.24 -0.05,3.03 -0.03,0.74 -0.15,1.13 -0.25,1.4 -0.14,0.35 -0.3,0.6 -0.57,0.86 -0.26,0.27 -0.51,0.43 -0.86,0.57 -0.27,0.1 -0.66,0.22 -1.4,0.25 -0.79,0.04 -1.03,0.05 -3.03,0.05 -2.01,0 -2.25,-0.01 -3.04,-0.05 -0.73,-0.03 -1.13,-0.15 -1.4,-0.25 -0.35,-0.14 -0.6,-0.3 -0.86,-0.57 -0.26,-0.26 -0.43,-0.51 -0.56,-0.86 -0.11,-0.27 -0.23,-0.66 -0.26,-1.4 -0.04,-0.79 -0.04,-1.03 -0.04,-3.03 0,-2.01 0,-2.25 0.04,-3.04 0.03,-0.73 0.15,-1.13 0.26,-1.4 0.13,-0.35 0.3,-0.6 0.56,-0.86 0.26,-0.26 0.51,-0.43 0.86,-0.56 0.27,-0.11 0.67,-0.23 1.4,-0.26 0.79,-0.04 1.03,-0.04 3.04,-0.04z"/>
   <path class="fil1" d="M11.94 14.44c-1.39,0 -2.51,-1.12 -2.51,-2.5 0,-1.39 1.12,-2.51 2.51,-2.51 1.38,0 2.5,1.12 2.5,2.51 0,1.38 -1.12,2.5 -2.5,2.5zm0 -6.36c-2.13,0 -3.86,1.73 -3.86,3.86 0,2.13 1.73,3.86 3.86,3.86 2.13,0 3.86,-1.73 3.86,-3.86 0,-2.13 -1.73,-3.86 -3.86,-3.86z"/>
   <path class="fil1" d="M16.85 7.92c0,0.5 -0.4,0.91 -0.9,0.91 -0.5,0 -0.9,-0.41 -0.9,-0.91 0,-0.49 0.4,-0.9 0.9,-0.9 0.5,0 0.9,0.41 0.9,0.9z"/>
  </g>
 </g>
</svg>
