<?xml version="1.0" encoding="UTF-8"?>
<!DOCTYPE svg PUBLIC "-//W3C//DTD SVG 1.1//EN" "http://www.w3.org/Graphics/SVG/1.1/DTD/svg11.dtd">
<!-- Creator: CorelDRAW 2021 (64-Bit) -->
<svg xmlns="http://www.w3.org/2000/svg" xml:space="preserve" width="837px" height="172px" version="1.1" style="shape-rendering:geometricPrecision; text-rendering:geometricPrecision; image-rendering:optimizeQuality; fill-rule:evenodd; clip-rule:evenodd"
viewBox="0 0 127.69 26.28"
 xmlns:xlink="http://www.w3.org/1999/xlink"
 xmlns:xodm="http://www.corel.com/coreldraw/odm/2003">
 <defs>
  <style type="text/css">
   <![CDATA[
    .fil0 {fill:white;fill-rule:nonzero}
   ]]>
  </style>
 </defs>
 <g id="Layer_x0020_1">
  <metadata id="CorelCorpID_0Corel-Layer"/>
  <path class="fil0" d="M30.58 26.25c-0.7,0 -1.33,-0.13 -1.88,-0.38 -0.56,-0.25 -0.99,-0.59 -1.31,-1.03 -0.31,-0.45 -0.48,-0.96 -0.49,-1.54l1.48 0c0.05,0.5 0.26,0.92 0.62,1.26 0.36,0.34 0.89,0.51 1.58,0.51 0.66,0 1.18,-0.16 1.56,-0.49 0.38,-0.33 0.58,-0.76 0.58,-1.28 0,-0.4 -0.12,-0.73 -0.34,-0.99 -0.22,-0.25 -0.5,-0.45 -0.84,-0.58 -0.33,-0.13 -0.79,-0.27 -1.36,-0.42 -0.7,-0.19 -1.26,-0.37 -1.68,-0.55 -0.42,-0.19 -0.79,-0.47 -1.09,-0.87 -0.3,-0.39 -0.45,-0.91 -0.45,-1.57 0,-0.58 0.15,-1.1 0.45,-1.55 0.29,-0.44 0.71,-0.79 1.24,-1.03 0.53,-0.25 1.15,-0.37 1.84,-0.37 0.99,0 1.81,0.25 2.45,0.75 0.63,0.5 0.99,1.16 1.07,1.98l-1.52 0c-0.05,-0.41 -0.27,-0.76 -0.64,-1.07 -0.38,-0.31 -0.88,-0.47 -1.5,-0.47 -0.58,0 -1.05,0.15 -1.42,0.45 -0.36,0.3 -0.55,0.72 -0.55,1.26 0,0.39 0.11,0.7 0.33,0.95 0.22,0.24 0.49,0.42 0.81,0.55 0.32,0.13 0.77,0.27 1.35,0.44 0.7,0.19 1.27,0.38 1.69,0.57 0.43,0.19 0.8,0.48 1.1,0.87 0.31,0.39 0.46,0.92 0.46,1.59 0,0.52 -0.14,1.01 -0.41,1.47 -0.28,0.45 -0.68,0.83 -1.22,1.11 -0.54,0.29 -1.18,0.43 -1.91,0.43zm6.3 -9.83c-0.26,0 -0.49,-0.09 -0.67,-0.27 -0.18,-0.18 -0.28,-0.41 -0.28,-0.67 0,-0.27 0.1,-0.49 0.28,-0.67 0.18,-0.19 0.41,-0.28 0.67,-0.28 0.25,0 0.47,0.09 0.65,0.28 0.18,0.18 0.27,0.4 0.27,0.67 0,0.26 -0.09,0.49 -0.27,0.67 -0.18,0.18 -0.4,0.27 -0.65,0.27zm0.67 1.36l0 8.36 -1.39 0 0 -8.36 1.39 0zm3.75 -2.93l0 11.29 -1.38 0 0 -11.29 1.38 0zm5.48 10.01l2.59 -7.08 1.48 0 -3.28 8.36 -1.61 0 -3.28 -8.36 1.49 0 2.61 7.08zm4.93 -2.93c0,-0.85 0.17,-1.6 0.52,-2.25 0.34,-0.65 0.82,-1.15 1.42,-1.5 0.61,-0.36 1.28,-0.54 2.02,-0.54 0.74,0 1.37,0.16 1.91,0.48 0.54,0.31 0.94,0.71 1.21,1.19l0 -1.53 1.4 0 0 8.36 -1.4 0 0 -1.56c-0.28,0.49 -0.69,0.9 -1.23,1.22 -0.55,0.32 -1.18,0.48 -1.9,0.48 -0.74,0 -1.42,-0.19 -2.02,-0.55 -0.6,-0.37 -1.07,-0.88 -1.41,-1.54 -0.35,-0.66 -0.52,-1.42 -0.52,-2.26zm7.08 0.02c0,-0.63 -0.13,-1.18 -0.39,-1.65 -0.25,-0.47 -0.59,-0.83 -1.03,-1.08 -0.43,-0.25 -0.9,-0.37 -1.42,-0.37 -0.52,0 -0.99,0.12 -1.42,0.37 -0.43,0.24 -0.77,0.6 -1.02,1.06 -0.26,0.47 -0.38,1.02 -0.38,1.65 0,0.64 0.12,1.2 0.38,1.67 0.25,0.47 0.59,0.83 1.02,1.08 0.43,0.25 0.9,0.38 1.42,0.38 0.52,0 0.99,-0.13 1.42,-0.38 0.44,-0.25 0.78,-0.61 1.03,-1.08 0.26,-0.47 0.39,-1.02 0.39,-1.65z"/>
  <path class="fil0" d="M94.21 3.77c0,0.88 -0.31,1.62 -0.91,2.2 -0.61,0.59 -1.53,0.88 -2.77,0.88l-2.04 0 0 4.44 -1.39 0 0 -10.63 3.43 0c1.2,0 2.11,0.29 2.74,0.87 0.62,0.58 0.94,1.32 0.94,2.24zm-3.68 1.94c0.77,0 1.34,-0.17 1.71,-0.51 0.36,-0.33 0.55,-0.81 0.55,-1.43 0,-1.31 -0.76,-1.97 -2.26,-1.97l-2.04 0 0 3.91 2.04 0zm4.88 1.37c0,-0.86 0.17,-1.61 0.52,-2.25 0.35,-0.65 0.82,-1.15 1.43,-1.5 0.6,-0.36 1.28,-0.54 2.02,-0.54 0.73,0 1.37,0.16 1.9,0.47 0.54,0.32 0.94,0.72 1.21,1.19l0 -1.52 1.4 0 0 8.36 -1.4 0 0 -1.56c-0.28,0.49 -0.68,0.89 -1.23,1.22 -0.54,0.32 -1.18,0.48 -1.9,0.48 -0.74,0 -1.41,-0.19 -2.01,-0.55 -0.6,-0.37 -1.07,-0.88 -1.42,-1.54 -0.35,-0.67 -0.52,-1.42 -0.52,-2.26zm7.08 0.01c0,-0.63 -0.13,-1.18 -0.38,-1.64 -0.26,-0.47 -0.6,-0.83 -1.03,-1.08 -0.43,-0.25 -0.91,-0.37 -1.43,-0.37 -0.52,0 -0.99,0.12 -1.42,0.36 -0.42,0.25 -0.76,0.6 -1.02,1.07 -0.25,0.47 -0.38,1.02 -0.38,1.65 0,0.64 0.13,1.2 0.38,1.67 0.26,0.47 0.6,0.83 1.02,1.08 0.43,0.25 0.9,0.38 1.42,0.38 0.52,0 1,-0.13 1.43,-0.38 0.43,-0.25 0.77,-0.61 1.03,-1.08 0.25,-0.47 0.38,-1.03 0.38,-1.66zm11.17 -4.16l0 8.36 -1.39 0 0 -1.24c-0.27,0.43 -0.64,0.76 -1.11,1 -0.47,0.24 -0.99,0.36 -1.56,0.36 -0.65,0 -1.24,-0.13 -1.76,-0.4 -0.51,-0.27 -0.92,-0.68 -1.22,-1.22 -0.3,-0.54 -0.45,-1.19 -0.45,-1.96l0 -4.9 1.37 0 0 4.71c0,0.83 0.21,1.46 0.62,1.9 0.42,0.44 0.99,0.67 1.71,0.67 0.74,0 1.33,-0.23 1.76,-0.69 0.42,-0.46 0.64,-1.12 0.64,-2l0 -4.59 1.39 0zm3.73 -2.93l0 11.29 -1.39 0 0 -11.29 1.39 0zm6.01 11.43c-0.78,0 -1.49,-0.18 -2.12,-0.54 -0.64,-0.35 -1.14,-0.86 -1.5,-1.52 -0.36,-0.65 -0.54,-1.41 -0.54,-2.28 0,-0.85 0.18,-1.61 0.56,-2.26 0.37,-0.66 0.87,-1.16 1.51,-1.51 0.64,-0.35 1.36,-0.53 2.15,-0.53 0.8,0 1.51,0.18 2.16,0.53 0.64,0.35 1.14,0.85 1.51,1.5 0.37,0.65 0.56,1.41 0.56,2.27 0,0.87 -0.19,1.63 -0.57,2.28 -0.38,0.66 -0.9,1.17 -1.55,1.52 -0.65,0.36 -1.37,0.54 -2.17,0.54zm0 -1.22c0.5,0 0.97,-0.12 1.41,-0.36 0.43,-0.23 0.79,-0.58 1.06,-1.05 0.27,-0.47 0.4,-1.04 0.4,-1.71 0,-0.67 -0.13,-1.24 -0.4,-1.71 -0.26,-0.46 -0.61,-0.81 -1.03,-1.04 -0.43,-0.23 -0.89,-0.34 -1.39,-0.34 -0.51,0 -0.97,0.11 -1.4,0.34 -0.42,0.23 -0.76,0.58 -1.01,1.04 -0.26,0.47 -0.38,1.04 -0.38,1.71 0,0.68 0.12,1.26 0.37,1.73 0.25,0.46 0.58,0.81 1,1.04 0.42,0.23 0.87,0.35 1.37,0.35z"/>
  <path class="fil0" d="M37.69 0.73l0 10.56 -1.39 0 0 -7.87 -3.51 7.87 -0.97 0 -3.53 -7.89 0 7.89 -1.39 0 0 -10.56 1.5 0 3.9 8.73 3.91 -8.73 1.48 0zm1.83 6.35c0,-0.86 0.17,-1.61 0.52,-2.25 0.34,-0.65 0.82,-1.15 1.42,-1.5 0.61,-0.36 1.28,-0.54 2.02,-0.54 0.74,0 1.37,0.16 1.91,0.47 0.54,0.32 0.94,0.72 1.21,1.19l0 -1.52 1.4 0 0 8.36 -1.4 0 0 -1.56c-0.28,0.49 -0.69,0.89 -1.23,1.22 -0.55,0.32 -1.18,0.48 -1.9,0.48 -0.74,0 -1.41,-0.19 -2.01,-0.55 -0.6,-0.37 -1.08,-0.88 -1.42,-1.54 -0.35,-0.67 -0.52,-1.42 -0.52,-2.26zm7.08 0.01c0,-0.63 -0.13,-1.18 -0.38,-1.64 -0.26,-0.47 -0.6,-0.83 -1.03,-1.08 -0.44,-0.25 -0.91,-0.37 -1.43,-0.37 -0.52,0 -0.99,0.12 -1.42,0.36 -0.43,0.25 -0.77,0.6 -1.02,1.07 -0.26,0.47 -0.38,1.02 -0.38,1.65 0,0.64 0.12,1.2 0.38,1.67 0.25,0.47 0.59,0.83 1.02,1.08 0.43,0.25 0.9,0.38 1.42,0.38 0.52,0 0.99,-0.13 1.43,-0.38 0.43,-0.25 0.77,-0.61 1.03,-1.08 0.25,-0.47 0.38,-1.03 0.38,-1.66zm5.14 -2.8c0.24,-0.48 0.59,-0.85 1.04,-1.12 0.46,-0.26 1.01,-0.39 1.66,-0.39l0 1.43 -0.37 0c-1.55,0 -2.33,0.84 -2.33,2.53l0 4.55 -1.39 0 0 -8.36 1.39 0 0 1.36zm3.78 2.8c0,-0.86 0.17,-1.62 0.52,-2.26 0.35,-0.65 0.83,-1.15 1.44,-1.5 0.62,-0.36 1.32,-0.54 2.11,-0.54 1.03,0 1.88,0.25 2.54,0.75 0.67,0.5 1.11,1.19 1.32,2.07l-1.49 0c-0.14,-0.5 -0.42,-0.91 -0.83,-1.2 -0.41,-0.3 -0.93,-0.44 -1.54,-0.44 -0.79,0 -1.43,0.27 -1.92,0.81 -0.49,0.55 -0.73,1.32 -0.73,2.31 0,1.01 0.24,1.79 0.73,2.34 0.49,0.55 1.13,0.82 1.92,0.82 0.61,0 1.12,-0.14 1.53,-0.43 0.41,-0.28 0.69,-0.69 0.84,-1.22l1.49 0c-0.22,0.86 -0.67,1.54 -1.34,2.06 -0.67,0.51 -1.51,0.77 -2.52,0.77 -0.79,0 -1.49,-0.18 -2.11,-0.54 -0.61,-0.35 -1.09,-0.86 -1.44,-1.51 -0.35,-0.65 -0.52,-1.41 -0.52,-2.29zm13.42 4.34c-0.78,0 -1.49,-0.18 -2.12,-0.54 -0.64,-0.35 -1.14,-0.86 -1.5,-1.52 -0.36,-0.65 -0.54,-1.41 -0.54,-2.28 0,-0.85 0.19,-1.61 0.56,-2.26 0.37,-0.66 0.87,-1.16 1.51,-1.51 0.65,-0.35 1.36,-0.53 2.16,-0.53 0.79,0 1.51,0.18 2.15,0.53 0.64,0.35 1.14,0.85 1.51,1.5 0.38,0.65 0.56,1.41 0.56,2.27 0,0.87 -0.19,1.63 -0.57,2.28 -0.38,0.66 -0.9,1.17 -1.55,1.52 -0.65,0.36 -1.37,0.54 -2.17,0.54zm0 -1.22c0.5,0 0.97,-0.12 1.41,-0.36 0.44,-0.23 0.79,-0.58 1.06,-1.05 0.27,-0.47 0.4,-1.04 0.4,-1.71 0,-0.67 -0.13,-1.24 -0.39,-1.71 -0.27,-0.46 -0.61,-0.81 -1.04,-1.04 -0.43,-0.23 -0.89,-0.34 -1.39,-0.34 -0.51,0 -0.97,0.11 -1.4,0.34 -0.42,0.23 -0.76,0.58 -1.01,1.04 -0.25,0.47 -0.38,1.04 -0.38,1.71 0,0.68 0.12,1.26 0.37,1.73 0.25,0.46 0.59,0.81 1,1.04 0.42,0.23 0.88,0.35 1.37,0.35zm9.08 1.22c-0.64,0 -1.21,-0.11 -1.72,-0.33 -0.51,-0.22 -0.91,-0.53 -1.21,-0.92 -0.29,-0.39 -0.46,-0.84 -0.49,-1.35l1.44 0c0.04,0.42 0.23,0.76 0.59,1.02 0.35,0.27 0.81,0.4 1.38,0.4 0.52,0 0.94,-0.12 1.25,-0.35 0.3,-0.23 0.45,-0.53 0.45,-0.88 0,-0.37 -0.16,-0.64 -0.48,-0.82 -0.33,-0.18 -0.83,-0.35 -1.51,-0.53 -0.62,-0.16 -1.13,-0.32 -1.52,-0.49 -0.39,-0.17 -0.73,-0.42 -1.01,-0.75 -0.28,-0.33 -0.42,-0.77 -0.42,-1.3 0,-0.43 0.13,-0.82 0.38,-1.18 0.26,-0.35 0.62,-0.64 1.09,-0.85 0.46,-0.2 1,-0.31 1.6,-0.31 0.92,0 1.67,0.24 2.24,0.7 0.57,0.47 0.88,1.11 0.92,1.93l-1.39 0c-0.03,-0.44 -0.21,-0.79 -0.53,-1.06 -0.32,-0.26 -0.75,-0.39 -1.29,-0.39 -0.5,0 -0.89,0.1 -1.19,0.32 -0.29,0.21 -0.44,0.49 -0.44,0.84 0,0.27 0.09,0.5 0.27,0.67 0.18,0.18 0.4,0.32 0.67,0.43 0.27,0.11 0.64,0.23 1.12,0.36 0.6,0.16 1.09,0.32 1.46,0.48 0.38,0.16 0.7,0.39 0.97,0.71 0.27,0.32 0.41,0.73 0.42,1.24 0,0.45 -0.12,0.87 -0.38,1.23 -0.25,0.37 -0.61,0.65 -1.07,0.86 -0.47,0.21 -1,0.32 -1.6,0.32z"/>
  <path class="fil0" d="M9.27 26.28l3.51 -3.35 3.51 3.35 6.4 0 -6.72 -6.39 1.86 -1.78 7.73 8.17 0 -6.4 -4.55 -4.81 1.68 -1.6 -1.65 -1.57 4.52 -4.78 0 -6.4 -7.71 8.15 -1.88 -1.79 6.72 -6.36 -6.4 0 -3.51 3.33 -3.51 -3.33 -6.4 0 6.72 6.36 -1.86 1.77 -7.73 -8.13 0 6.4 4.53 4.77 -1.66 1.58 1.69 1.61 -4.56 4.8 0 6.4 7.75 -8.15 1.84 1.76 -6.72 6.39 6.4 0zm2.88 -12.78l0.66 -0.7 0.66 0.7 -0.66 0.69 -0.66 -0.69z"/>
 </g>
</svg>
